# xmcd CD database file
#
# Track frame offsets:
#	150
#	15605
#	31305
#	50517
#	67864
#	83072
#	98715
#	119820
#	137970
#	155758
#
# Disc length: 2363 seconds
#
# Revision: 0
# Processed by: cddbd v1.5.2PL0 Copyright (c) Steve Scherf et al.
# Submitted via: CDex 2.23
#
DISCID=8309390a
DTITLE=Joe Cocker - Hard Knocks 
DYEAR=2010
DGENRE=Blues
TTITLE0=Hard Knocks
TTITLE1=Get On
TTITLE2=Unforgiven
TTITLE3=The Fall
TTITLE4=So It Goes
TTITLE5=Runaway Train
TTITLE6=Stay The Same
TTITLE7=Thankful
TTITLE8=So
TTITLE9=I Hope
EXTD=YEAR: 2010
EXTT0=
EXTT1=
EXTT2=
EXTT3=
EXTT4=
EXTT5=
EXTT6=
EXTT7=
EXTT8=
EXTT9=
PLAYORDER=
